<svg width="24" height="24" viewBox="0 0 24 24" fill="none" xmlns="http://www.w3.org/2000/svg">
<path d="M12.0011 0.266724C8.81449 0.266724 8.41457 0.280657 7.163 0.337613C5.91388 0.394814 5.06125 0.592571 4.31519 0.88273C3.54347 1.18242 2.88885 1.58332 2.23666 2.23574C1.58399 2.88793 1.18309 3.54256 0.882425 4.31403C0.591533 5.06033 0.393531 5.9132 0.337308 7.16184C0.281329 8.41341 0.266663 8.81357 0.266663 12.0002C0.266663 15.1868 0.28084 15.5855 0.337552 16.8371C0.394997 18.0862 0.592755 18.9388 0.882669 19.6849C1.18261 20.4566 1.5835 21.1112 2.23593 21.7634C2.88787 22.4161 3.5425 22.8179 4.31373 23.1176C5.06027 23.4078 5.91314 23.6055 7.16202 23.6627C8.41359 23.7197 8.81326 23.7336 11.9996 23.7336C15.1865 23.7336 15.5852 23.7197 16.8367 23.6627C18.0859 23.6055 18.9395 23.4078 19.686 23.1176C20.4575 22.8179 21.1111 22.4161 21.7631 21.7634C22.4158 21.1112 22.8167 20.4566 23.1173 19.6851C23.4058 18.9388 23.6038 18.0859 23.6624 16.8373C23.7187 15.5857 23.7333 15.1868 23.7333 12.0002C23.7333 8.81357 23.7187 8.41365 23.6624 7.16208C23.6038 5.91296 23.4058 5.06033 23.1173 4.31428C22.8167 3.54256 22.4158 2.88793 21.7631 2.23574C21.1104 1.58307 20.4577 1.18218 19.6853 0.88273C18.9373 0.592571 18.0842 0.394814 16.835 0.337613C15.5835 0.280657 15.185 0.266724 11.9974 0.266724H12.0011Z" fill="black"/>
<path d="M10.9485 2.38111C11.2609 2.38062 11.6095 2.38111 12.0011 2.38111C15.1339 2.38111 15.5052 2.39235 16.7424 2.44857C17.8864 2.50089 18.5073 2.69204 18.9209 2.85265C19.4685 3.06531 19.8588 3.31954 20.2693 3.73021C20.6799 4.14088 20.9342 4.532 21.1473 5.07956C21.3079 5.49267 21.4993 6.11357 21.5514 7.25758C21.6076 8.49448 21.6198 8.86604 21.6198 11.9974C21.6198 15.1288 21.6076 15.5003 21.5514 16.7372C21.4991 17.8812 21.3079 18.5021 21.1473 18.9153C20.9347 19.4628 20.6799 19.8527 20.2693 20.2631C19.8586 20.6738 19.4687 20.928 18.9209 21.1407C18.5078 21.302 17.8864 21.4927 16.7424 21.545C15.5055 21.6012 15.1339 21.6135 12.0011 21.6135C8.86802 21.6135 8.49671 21.6012 7.25981 21.545C6.11579 21.4922 5.4949 21.3011 5.08105 21.1405C4.53349 20.9278 4.14237 20.6736 3.7317 20.2629C3.32103 19.8522 3.06681 19.4621 2.85365 18.9143C2.69305 18.5012 2.50165 17.8803 2.44958 16.7363C2.39336 15.4994 2.38211 15.1278 2.38211 11.9945C2.38211 8.86115 2.39336 8.49155 2.44958 7.25465C2.50189 6.11064 2.69305 5.48974 2.85365 5.07614C3.06632 4.52857 3.32103 4.13746 3.7317 3.72679C4.14237 3.31612 4.53349 3.06189 5.08105 2.84873C5.49465 2.6874 6.11579 2.49673 7.25981 2.44417C8.34222 2.39529 8.76169 2.38062 10.9485 2.37817V2.38111Z" fill="white"/>
<path d="M18.2643 4.32935C17.487 4.32935 16.8563 4.95929 16.8563 5.73687C16.8563 6.51421 17.487 7.14489 18.2643 7.14489C19.0417 7.14489 19.6723 6.51421 19.6723 5.73687C19.6723 4.95953 19.0417 4.32886 18.2643 4.32886V4.32935Z" fill="black"/>
<path d="M12.0011 5.97449C8.67346 5.97449 5.97549 8.67245 5.97549 12.0001C5.97549 15.3278 8.67346 18.0245 12.0011 18.0245C15.3288 18.0245 18.0258 15.3278 18.0258 12.0001C18.0258 8.67245 15.3285 5.97449 12.0009 5.97449H12.0011Z" fill="black"/>
<path d="M12.0011 8.08899C14.1611 8.08899 15.9123 9.83996 15.9123 12.0001C15.9123 14.1601 14.1611 15.9113 12.0011 15.9113C9.84094 15.9113 8.08997 14.1601 8.08997 12.0001C8.08997 9.83996 9.84094 8.08899 12.0011 8.08899Z" fill="white"/>
</svg>
