<svg width="16" height="16" viewBox="0 0 16 16" fill="none" xmlns="http://www.w3.org/2000/svg">
<g clip-path="url(#clip0)">
<path d="M13.5899 10.1968V13.8517H2.41001V10.1968H0.26123V14.9261C0.26123 15.5191 0.741583 16 1.33722 16H14.6627C15.2578 16 15.7387 15.5196 15.7387 14.9261V10.1968H13.5899Z" fill="#727272"/>
<path d="M7.80347 9.83441L4.72708 6.11702C4.72708 6.11702 4.259 5.6751 4.76658 5.6751C5.27415 5.6751 6.50012 5.6751 6.50012 5.6751C6.50012 5.6751 6.50012 5.37781 6.50012 4.91934C6.50012 3.61225 6.50012 1.23344 6.50012 0.26366C6.50012 0.26366 6.43126 0 6.82836 0C7.22865 0 8.98194 0 9.26855 0C9.55462 0 9.54822 0.222029 9.54822 0.222029C9.54822 1.16245 9.54822 3.62346 9.54822 4.88785C9.54822 5.29775 9.54822 5.56355 9.54822 5.56355C9.54822 5.56355 10.5313 5.56355 11.1483 5.56355C11.7642 5.56355 11.3004 6.02629 11.3004 6.02629C11.3004 6.02629 8.68305 9.50083 8.31798 9.86537C8.05539 10.1296 7.80347 9.83441 7.80347 9.83441Z" fill="#727272"/>
</g>
<defs>
<clipPath id="clip0">
<rect width="16" height="16" fill="white"/>
</clipPath>
</defs>
</svg>
