<svg width="44" height="44" viewBox="0 0 44 44" fill="none" xmlns="http://www.w3.org/2000/svg">
<path d="M22.0012 10.2667C18.8145 10.2667 18.4146 10.2807 17.1631 10.3376C15.9139 10.3948 15.0613 10.5926 14.3153 10.8827C13.5435 11.1824 12.8889 11.5833 12.2367 12.2357C11.584 12.8879 11.1832 13.5426 10.8825 14.314C10.5916 15.0603 10.3936 15.9132 10.3374 17.1618C10.2814 18.4134 10.2667 18.8136 10.2667 22.0002C10.2667 25.1868 10.2809 25.5855 10.3376 26.8371C10.3951 28.0862 10.5928 28.9388 10.8827 29.6849C11.1827 30.4566 11.5836 31.1112 12.236 31.7634C12.8879 32.4161 13.5426 32.8179 14.3138 33.1176C15.0603 33.4078 15.9132 33.6055 17.1621 33.6627C18.4137 33.7197 18.8133 33.7336 21.9997 33.7336C25.1865 33.7336 25.5852 33.7197 26.8368 33.6627C28.0859 33.6055 28.9395 33.4078 29.6861 33.1176C30.4576 32.8179 31.1112 32.4161 31.7631 31.7634C32.4158 31.1112 32.8167 30.4566 33.1174 29.6851C33.4058 28.9388 33.6038 28.0859 33.6625 26.8373C33.7187 25.5857 33.7334 25.1868 33.7334 22.0002C33.7334 18.8136 33.7187 18.4137 33.6625 17.1621C33.6038 15.913 33.4058 15.0603 33.1174 14.3143C32.8167 13.5426 32.4158 12.8879 31.7631 12.2357C31.1105 11.5831 30.4578 11.1822 29.6853 10.8827C28.9373 10.5926 28.0842 10.3948 26.8351 10.3376C25.5835 10.2807 25.1851 10.2667 21.9975 10.2667H22.0012Z" fill="black"/>
<path d="M20.9485 12.3811C21.2609 12.3806 21.6095 12.3811 22.0011 12.3811C25.1339 12.3811 25.5052 12.3924 26.7424 12.4486C27.8864 12.5009 28.5073 12.692 28.9209 12.8526C29.4684 13.0653 29.8588 13.3195 30.2692 13.7302C30.6799 14.1409 30.9341 14.532 31.1473 15.0796C31.3079 15.4927 31.4993 16.1136 31.5514 17.2576C31.6076 18.4945 31.6198 18.866 31.6198 21.9974C31.6198 25.1288 31.6076 25.5003 31.5514 26.7372C31.4991 27.8812 31.3079 28.5021 31.1473 28.9153C30.9346 29.4628 30.6799 29.8527 30.2692 30.2631C29.8586 30.6738 29.4687 30.928 28.9209 31.1407C28.5078 31.302 27.8864 31.4927 26.7424 31.545C25.5055 31.6012 25.1339 31.6135 22.0011 31.6135C18.868 31.6135 18.4967 31.6012 17.2598 31.545C16.1158 31.4922 15.4949 31.3011 15.081 31.1405C14.5335 30.9278 14.1423 30.6736 13.7317 30.2629C13.321 29.8522 13.0668 29.4621 12.8536 28.9143C12.693 28.5012 12.5016 27.8803 12.4495 26.7363C12.3933 25.4994 12.3821 25.1278 12.3821 21.9945C12.3821 18.8612 12.3933 18.4915 12.4495 17.2546C12.5019 16.1106 12.693 15.4897 12.8536 15.0761C13.0663 14.5286 13.321 14.1375 13.7317 13.7268C14.1423 13.3161 14.5335 13.0619 15.081 12.8487C15.4946 12.6874 16.1158 12.4967 17.2598 12.4442C18.3422 12.3953 18.7617 12.3806 20.9485 12.3782V12.3811Z" fill="white"/>
<path d="M28.2643 14.3293C27.487 14.3293 26.8563 14.9593 26.8563 15.7369C26.8563 16.5142 27.487 17.1449 28.2643 17.1449C29.0417 17.1449 29.6724 16.5142 29.6724 15.7369C29.6724 14.9595 29.0417 14.3289 28.2643 14.3289V14.3293Z" fill="black"/>
<path d="M22.0011 15.9745C18.6734 15.9745 15.9755 18.6724 15.9755 22.0001C15.9755 25.3278 18.6734 28.0245 22.0011 28.0245C25.3287 28.0245 28.0257 25.3278 28.0257 22.0001C28.0257 18.6724 25.3285 15.9745 22.0008 15.9745H22.0011Z" fill="black"/>
<path d="M22.0011 18.089C24.1611 18.089 25.9123 19.84 25.9123 22.0001C25.9123 24.1601 24.1611 25.9113 22.0011 25.9113C19.8409 25.9113 18.09 24.1601 18.09 22.0001C18.09 19.84 19.8409 18.089 22.0011 18.089Z" fill="white"/>
</svg>
