<svg width="24" height="18" viewBox="0 0 24 18" fill="none" xmlns="http://www.w3.org/2000/svg">
<path d="M23.2429 3.56713C22.973 2.53038 22.1778 1.71398 21.1681 1.4369C19.3382 0.93335 11.9999 0.93335 11.9999 0.93335C11.9999 0.93335 4.66167 0.93335 2.83167 1.4369C1.82193 1.71398 1.02673 2.53038 0.756868 3.56713C0.266602 5.44614 0.266602 9.36668 0.266602 9.36668C0.266602 9.36668 0.266602 13.2871 0.756868 15.1662C1.02673 16.203 1.82193 17.0194 2.83167 17.2966C4.66167 17.8 11.9999 17.8 11.9999 17.8C11.9999 17.8 19.3382 17.8 21.1681 17.2966C22.1778 17.0194 22.973 16.203 23.2429 15.1662C23.7333 13.2871 23.7333 9.36668 23.7333 9.36668C23.7333 9.36668 23.7333 5.44614 23.2429 3.56713Z" fill="black"/>
<path d="M9.80005 13.4V6.06665L15.6667 9.73346L9.80005 13.4Z" fill="white"/>
</svg>
