<svg width="46" height="46" viewBox="0 0 46 46" fill="none" xmlns="http://www.w3.org/2000/svg">
<path d="M1 23C1 10.8497 10.8497 1 23 1C35.1503 1 45 10.8497 45 23C45 35.1503 35.1503 45 23 45C10.8497 45 1 35.1503 1 23Z" stroke="black" stroke-width="2"/>
<path d="M23.001 11.2667C19.8144 11.2667 19.4145 11.2806 18.1629 11.3376C16.9138 11.3948 16.0612 11.5925 15.3151 11.8827C14.5434 12.1824 13.8888 12.5833 13.2366 13.2357C12.5839 13.8879 12.183 14.5425 11.8824 15.314C11.5915 16.0603 11.3935 16.9131 11.3372 18.1618C11.2813 19.4133 11.2666 19.8135 11.2666 23.0001C11.2666 26.1867 11.2808 26.5854 11.3375 27.837C11.3949 29.0861 11.5927 29.9387 11.8826 30.6848C12.1825 31.4565 12.5834 32.1111 13.2359 32.7633C13.8878 33.416 14.5424 33.8179 15.3137 34.1176C16.0602 34.4077 16.9131 34.6055 18.162 34.6627C19.4135 34.7196 19.8132 34.7336 22.9996 34.7336C26.1864 34.7336 26.5851 34.7196 27.8367 34.6627C29.0858 34.6055 29.9394 34.4077 30.686 34.1176C31.4574 33.8179 32.1111 33.416 32.763 32.7633C33.4157 32.1111 33.8166 31.4565 34.1173 30.685C34.4057 29.9387 34.6037 29.0859 34.6624 27.8372C34.7186 26.5857 34.7333 26.1867 34.7333 23.0001C34.7333 19.8135 34.7186 19.4136 34.6624 18.162C34.6037 16.9129 34.4057 16.0603 34.1173 15.3142C33.8166 14.5425 33.4157 13.8879 32.763 13.2357C32.1104 12.583 31.4577 12.1821 30.6852 11.8827C29.9372 11.5925 29.0841 11.3948 27.835 11.3376C26.5834 11.2806 26.185 11.2667 22.9974 11.2667H23.001Z" fill="black"/>
<path d="M21.9485 13.3811C22.2609 13.3806 22.6095 13.3811 23.0011 13.3811C26.1339 13.3811 26.5052 13.3924 27.7424 13.4486C28.8864 13.5009 29.5073 13.6921 29.9209 13.8527C30.4684 14.0653 30.8588 14.3196 31.2692 14.7302C31.6799 15.1409 31.9341 15.532 32.1473 16.0796C32.3079 16.4927 32.4993 17.1136 32.5514 18.2576C32.6076 19.4945 32.6198 19.8661 32.6198 22.9974C32.6198 26.1288 32.6076 26.5004 32.5514 27.7373C32.4991 28.8813 32.3079 29.5022 32.1473 29.9153C31.9346 30.4629 31.6799 30.8527 31.2692 31.2632C30.8586 31.6738 30.4687 31.9281 29.9209 32.1407C29.5078 32.3021 28.8864 32.4927 27.7424 32.5451C26.5055 32.6013 26.1339 32.6135 23.0011 32.6135C19.868 32.6135 19.4967 32.6013 18.2598 32.5451C17.1158 32.4922 16.4949 32.3011 16.081 32.1405C15.5335 31.9278 15.1423 31.6736 14.7317 31.2629C14.321 30.8523 14.0668 30.4621 13.8536 29.9143C13.693 29.5012 13.5016 28.8803 13.4495 27.7363C13.3933 26.4994 13.3821 26.1278 13.3821 22.9945C13.3821 19.8612 13.3933 19.4916 13.4495 18.2547C13.5019 17.1107 13.693 16.4898 13.8536 16.0762C14.0663 15.5286 14.321 15.1375 14.7317 14.7268C15.1423 14.3161 15.5335 14.0619 16.081 13.8488C16.4946 13.6874 17.1158 13.4968 18.2598 13.4442C19.3422 13.3953 19.7617 13.3806 21.9485 13.3782V13.3811Z" fill="white"/>
<path d="M29.2642 15.3294C28.4869 15.3294 27.8562 15.9593 27.8562 16.7369C27.8562 17.5142 28.4869 18.1449 29.2642 18.1449C30.0416 18.1449 30.6722 17.5142 30.6722 16.7369C30.6722 15.9596 30.0416 15.3289 29.2642 15.3289V15.3294Z" fill="black"/>
<path d="M23.0012 16.9745C19.6735 16.9745 16.9756 19.6724 16.9756 23.0001C16.9756 26.3278 19.6735 29.0245 23.0012 29.0245C26.3289 29.0245 29.0258 26.3278 29.0258 23.0001C29.0258 19.6724 26.3286 16.9745 23.001 16.9745H23.0012Z" fill="black"/>
<path d="M23.001 19.089C25.1609 19.089 26.9121 20.8399 26.9121 23.0001C26.9121 25.16 25.1609 26.9113 23.001 26.9113C20.8408 26.9113 19.0898 25.16 19.0898 23.0001C19.0898 20.8399 20.8408 19.089 23.001 19.089Z" fill="white"/>
</svg>
